HIERARCHY
ROOT newVegas:Hips
{
	OFFSET 0.000000 96.479958 0.000000
	CHANNELS 6 Xposition Yposition Zposition Xrotation Yrotation Zrotation
	JOINT newVegas:Pelvis
	{
		OFFSET 0.000000 0.000000 0.000000
		CHANNELS 3 Xrotation Yrotation Zrotation
		JOINT newVegas:LeftUpLeg
		{
			OFFSET 18.735201 -5.666702 -4.541200
			CHANNELS 3 Xrotation Yrotation Zrotation
			JOINT newVegas:LeftLeg
			{
				OFFSET -0.021200 -31.938179 0.493100
				CHANNELS 3 Xrotation Yrotation Zrotation
				JOINT newVegas:LeftFoot
				{
					OFFSET 0.021200 -31.938179 -4.336299
					CHANNELS 3 Xrotation Yrotation Zrotation
					JOINT newVegas:LeftToeBase
					{
						OFFSET 0.943001 -26.722000 15.023500
						CHANNELS 3 Xrotation Yrotation Zrotation
						End Site
						{
							OFFSET 0.000000 30.670183 0.000000
						}
					}
				}
				JOINT newVegas:Left_PantLeg
				{
					OFFSET 0.663870 -9.044666 -1.108900
					CHANNELS 3 Xrotation Yrotation Zrotation
					End Site
					{
						OFFSET 1.415995 20.635357 0.000000
					}
				}
			}
		}
		JOINT newVegas:RightUpLeg
		{
			OFFSET -18.735201 -5.666702 -4.541200
			CHANNELS 3 Xrotation Yrotation Zrotation
			JOINT newVegas:RightLeg
			{
				OFFSET 0.018946 -31.938133 0.493100
				CHANNELS 3 Xrotation Yrotation Zrotation
				JOINT newVegas:RightFoot
				{
					OFFSET -0.018946 -31.938126 -4.336299
					CHANNELS 3 Xrotation Yrotation Zrotation
					JOINT newVegas:RightToeBase
					{
						OFFSET -0.943001 -26.722004 15.023500
						CHANNELS 3 Xrotation Yrotation Zrotation
						End Site
						{
							OFFSET 0.000000 30.670187 0.000000
						}
					}
				}
				JOINT newVegas:Right_PantLeg
				{
					OFFSET -0.661674 -9.044716 -1.108900
					CHANNELS 3 Xrotation Yrotation Zrotation
					End Site
					{
						OFFSET -1.415958 20.635269 0.000000
					}
				}
			}
		}
	}
	JOINT newVegas:Spine
	{
		OFFSET 0.000000 10.199997 -0.299500
		CHANNELS 3 Xrotation Yrotation Zrotation
		JOINT newVegas:Spine1
		{
			OFFSET 0.000000 11.900002 -1.516600
			CHANNELS 3 Xrotation Yrotation Zrotation
			JOINT newVegas:Spine2
			{
				OFFSET 0.000000 13.600006 -2.842500
				CHANNELS 3 Xrotation Yrotation Zrotation
				JOINT newVegas:Neck
				{
					OFFSET 0.000000 9.624100 -2.890100
					CHANNELS 3 Xrotation Yrotation Zrotation
					JOINT newVegas:Head
					{
						OFFSET 0.000000 14.068802 -1.351900
						CHANNELS 3 Xrotation Yrotation Zrotation
						JOINT newVegas:Hair_Back
						{
							OFFSET 0.000000 3.231903 -17.524799
							CHANNELS 3 Xrotation Yrotation Zrotation
							End Site
							{
								OFFSET 0.000000 19.849884 0.000000
							}
						}
						JOINT newVegas:Hair_Front
						{
							OFFSET 0.000000 31.260406 4.573800
							CHANNELS 3 Xrotation Yrotation Zrotation
							JOINT newVegas:Hair_Front1
							{
								OFFSET 0.000000 2.284103 11.993300
								CHANNELS 3 Xrotation Yrotation Zrotation
								JOINT newVegas:Hair_Front2
								{
									OFFSET 0.000000 2.284103 11.993300
									CHANNELS 3 Xrotation Yrotation Zrotation
									End Site
									{
										OFFSET 0.000000 12.208862 0.000000
									}
								}
							}
						}
						JOINT newVegas:Jowel
						{
							OFFSET 0.000000 -7.458206 6.864100
							CHANNELS 3 Xrotation Yrotation Zrotation
							End Site
							{
								OFFSET 0.000000 19.849884 0.000000
							}
						}
					}
				}
				JOINT newVegas:LeftShoulder
				{
					OFFSET 15.263000 10.923401 -0.547700
					CHANNELS 3 Xrotation Yrotation Zrotation
					JOINT newVegas:LeftArm
					{
						OFFSET 25.438599 -2.830597 -13.032500
						CHANNELS 3 Xrotation Yrotation Zrotation
						JOINT newVegas:LeftForeArm
						{
							OFFSET 29.960503 0.000000 0.000000
							CHANNELS 3 Xrotation Yrotation Zrotation
							JOINT newVegas:LeftHand
							{
								OFFSET 27.849251 0.000000 0.000000
								CHANNELS 3 Xrotation Yrotation Zrotation
								JOINT newVegas:LeftHandThumb1
								{
									OFFSET 4.487587 -3.305161 6.305391
									CHANNELS 3 Xrotation Yrotation Zrotation
									JOINT newVegas:LeftHandThumb2
									{
										OFFSET 5.480453 -3.164139 3.164143
										CHANNELS 3 Xrotation Yrotation Zrotation
										JOINT newVegas:LeftHandThumb3
										{
											OFFSET 5.159721 -2.978973 2.978967
											CHANNELS 3 Xrotation Yrotation Zrotation
											End Site
											{
												OFFSET 2.494507 5.926697 1.738678
											}
										}
									}
								}
								JOINT newVegas:LeftHandIndex1
								{
									OFFSET 18.578728 -0.527832 5.208049
									CHANNELS 3 Xrotation Yrotation Zrotation
									JOINT newVegas:LeftHandIndex2
									{
										OFFSET 3.192009 0.000000 0.000000
										CHANNELS 3 Xrotation Yrotation Zrotation
										JOINT newVegas:LeftHandIndex3
										{
											OFFSET 3.835129 0.000000 0.000000
											CHANNELS 3 Xrotation Yrotation Zrotation
											End Site
											{
												OFFSET -0.034599 3.816971 0.371180
											}
										}
									}
								}
								JOINT newVegas:LeftHandMiddle1
								{
									OFFSET 18.476105 0.000000 0.000000
									CHANNELS 3 Xrotation Yrotation Zrotation
									JOINT newVegas:LeftHandMiddle2
									{
										OFFSET 3.324875 0.000000 0.000000
										CHANNELS 3 Xrotation Yrotation Zrotation
										JOINT newVegas:LeftHandMiddle3
										{
											OFFSET 4.596550 0.000000 0.000000
											CHANNELS 3 Xrotation Yrotation Zrotation
											End Site
											{
												OFFSET 0.057701 4.578827 0.399218
											}
										}
									}
								}
								JOINT newVegas:LeftHandRing1
								{
									OFFSET 17.732719 0.121887 -4.201567
									CHANNELS 3 Xrotation Yrotation Zrotation
									JOINT newVegas:LeftHandRing2
									{
										OFFSET 2.733170 0.000000 0.000000
										CHANNELS 3 Xrotation Yrotation Zrotation
										JOINT newVegas:LeftHandRing3
										{
											OFFSET 3.178268 0.000000 0.000000
											CHANNELS 3 Xrotation Yrotation Zrotation
											End Site
											{
												OFFSET 0.119102 3.170624 0.185394
											}
										}
									}
								}
								JOINT newVegas:LeftHandPinky1
								{
									OFFSET 15.989624 -0.606689 -7.535461
									CHANNELS 3 Xrotation Yrotation Zrotation
									JOINT newVegas:LeftHandPinky2
									{
										OFFSET 2.538986 0.000000 0.000000
										CHANNELS 3 Xrotation Yrotation Zrotation
										JOINT newVegas:LeftHandPinky3
										{
											OFFSET 2.593102 0.000000 0.000000
											CHANNELS 3 Xrotation Yrotation Zrotation
											End Site
											{
												OFFSET -0.150902 2.584198 0.152708
											}
										}
									}
								}
							}
							JOINT newVegas:Left_Sleeve
							{
								OFFSET 0.267448 -0.649796 0.577675
								CHANNELS 3 Xrotation Yrotation Zrotation
								End Site
								{
									OFFSET 0.000000 15.991241 0.000000
								}
							}
							JOINT newVegas:Left_CapeC
							{
								OFFSET 15.715958 -8.608795 -6.935905
								CHANNELS 3 Xrotation Yrotation Zrotation
								JOINT newVegas:Left_CapeC1
								{
									OFFSET 0.000000 -8.688499 0.000000
									CHANNELS 3 Xrotation Yrotation Zrotation
									End Site
									{
										OFFSET 0.000000 8.688499 0.000000
									}
								}
							}
						}
						JOINT newVegas:Left_CapeB
						{
							OFFSET 26.118385 -8.608795 -7.079235
							CHANNELS 3 Xrotation Yrotation Zrotation
							JOINT newVegas:Left_CapeB1
							{
								OFFSET 0.000000 -8.688499 0.000000
								CHANNELS 3 Xrotation Yrotation Zrotation
								End Site
								{
									OFFSET 0.000000 8.688499 0.000000
								}
							}
						}
						JOINT newVegas:Left_CapeA
						{
							OFFSET 5.115639 -8.608795 -10.395809
							CHANNELS 3 Xrotation Yrotation Zrotation
							JOINT newVegas:Left_CapeA1
							{
								OFFSET 0.000000 -8.688499 0.000000
								CHANNELS 3 Xrotation Yrotation Zrotation
								End Site
								{
									OFFSET 0.000000 8.688499 0.000000
								}
							}
						}
					}
				}
				JOINT newVegas:RightShoulder
				{
					OFFSET -15.263000 10.923401 -0.547700
					CHANNELS 3 Xrotation Yrotation Zrotation
					JOINT newVegas:RightArm
					{
						OFFSET -25.438599 -2.830597 -13.032500
						CHANNELS 3 Xrotation Yrotation Zrotation
						JOINT newVegas:RightForeArm
						{
							OFFSET -29.960503 0.000000 0.000000
							CHANNELS 3 Xrotation Yrotation Zrotation
							JOINT newVegas:RightHand
							{
								OFFSET -27.849251 0.000000 0.000000
								CHANNELS 3 Xrotation Yrotation Zrotation
								JOINT newVegas:RightHandThumb1
								{
									OFFSET -4.487587 -3.305161 6.305391
									CHANNELS 3 Xrotation Yrotation Zrotation
									JOINT newVegas:RightHandThumb2
									{
										OFFSET -5.480453 -3.164139 3.164143
										CHANNELS 3 Xrotation Yrotation Zrotation
										JOINT newVegas:RightHandThumb3
										{
											OFFSET -5.159721 -2.978973 2.978967
											CHANNELS 3 Xrotation Yrotation Zrotation
											End Site
											{
												OFFSET -2.494507 5.926697 1.738678
											}
										}
									}
								}
								JOINT newVegas:RightHandIndex1
								{
									OFFSET -18.578728 -0.527832 5.208049
									CHANNELS 3 Xrotation Yrotation Zrotation
									JOINT newVegas:RightHandIndex2
									{
										OFFSET -3.192009 0.000000 0.000000
										CHANNELS 3 Xrotation Yrotation Zrotation
										JOINT newVegas:RightHandIndex3
										{
											OFFSET -3.835129 0.000000 0.000000
											CHANNELS 3 Xrotation Yrotation Zrotation
											End Site
											{
												OFFSET 0.034599 3.816971 0.371180
											}
										}
									}
								}
								JOINT newVegas:RightHandMiddle1
								{
									OFFSET -18.476105 0.000000 0.000000
									CHANNELS 3 Xrotation Yrotation Zrotation
									JOINT newVegas:RightHandMiddle2
									{
										OFFSET -3.324875 0.000000 0.000000
										CHANNELS 3 Xrotation Yrotation Zrotation
										JOINT newVegas:RightHandMiddle3
										{
											OFFSET -4.596550 0.000000 0.000000
											CHANNELS 3 Xrotation Yrotation Zrotation
											End Site
											{
												OFFSET -0.057701 4.578827 0.399218
											}
										}
									}
								}
								JOINT newVegas:RightHandRing1
								{
									OFFSET -17.732719 0.121887 -4.201567
									CHANNELS 3 Xrotation Yrotation Zrotation
									JOINT newVegas:RightHandRing2
									{
										OFFSET -2.733170 0.000000 0.000000
										CHANNELS 3 Xrotation Yrotation Zrotation
										JOINT newVegas:RightHandRing3
										{
											OFFSET -3.178268 0.000000 0.000000
											CHANNELS 3 Xrotation Yrotation Zrotation
											End Site
											{
												OFFSET -0.119102 3.170624 0.185394
											}
										}
									}
								}
								JOINT newVegas:RightHandPinky1
								{
									OFFSET -15.989624 -0.606689 -7.535461
									CHANNELS 3 Xrotation Yrotation Zrotation
									JOINT newVegas:RightHandPinky2
									{
										OFFSET -2.538986 0.000000 0.000000
										CHANNELS 3 Xrotation Yrotation Zrotation
										JOINT newVegas:RightHandPinky3
										{
											OFFSET -2.593102 0.000000 0.000000
											CHANNELS 3 Xrotation Yrotation Zrotation
											End Site
											{
												OFFSET 0.150902 2.584198 0.152708
											}
										}
									}
								}
							}
							JOINT newVegas:Right_CapeC
							{
								OFFSET -15.715958 -8.608795 -6.935905
								CHANNELS 3 Xrotation Yrotation Zrotation
								JOINT newVegas:Right_CapeC1
								{
									OFFSET 0.000000 -8.688499 0.000000
									CHANNELS 3 Xrotation Yrotation Zrotation
									End Site
									{
										OFFSET 0.000000 8.688499 0.000000
									}
								}
							}
							JOINT newVegas:Right_Sleeve
							{
								OFFSET -0.267448 -0.649994 0.577675
								CHANNELS 3 Xrotation Yrotation Zrotation
								End Site
								{
									OFFSET 0.000000 15.991302 0.000000
								}
							}
						}
						JOINT newVegas:Right_CapeA
						{
							OFFSET -5.115540 -8.608795 -10.395824
							CHANNELS 3 Xrotation Yrotation Zrotation
							JOINT newVegas:Right_CapeA1
							{
								OFFSET 0.000000 -8.688499 0.000000
								CHANNELS 3 Xrotation Yrotation Zrotation
								End Site
								{
									OFFSET 0.000000 8.688499 0.000000
								}
							}
						}
						JOINT newVegas:Right_CapeB
						{
							OFFSET -26.118187 -8.608795 -7.079266
							CHANNELS 3 Xrotation Yrotation Zrotation
							JOINT newVegas:Right_CapeB1
							{
								OFFSET 0.000000 -8.688499 0.000000
								CHANNELS 3 Xrotation Yrotation Zrotation
								End Site
								{
									OFFSET 0.000000 8.688499 0.000000
								}
							}
						}
					}
				}
				JOINT newVegas:Left_Collar
				{
					OFFSET 18.625099 8.655502 8.828100
					CHANNELS 3 Xrotation Yrotation Zrotation
					JOINT newVegas:Left_Collar1
					{
						OFFSET 14.783401 10.540405 -1.259500
						CHANNELS 3 Xrotation Yrotation Zrotation
						End Site
						{
							OFFSET 0.000000 18.199875 0.000000
						}
					}
				}
				JOINT newVegas:Collar_Back
				{
					OFFSET 0.000000 15.630707 -20.132601
					CHANNELS 3 Xrotation Yrotation Zrotation
					End Site
					{
						OFFSET 0.000000 22.523010 0.000000
					}
				}
				JOINT newVegas:Left_Peck
				{
					OFFSET 17.239599 -5.132599 25.482599
					CHANNELS 3 Xrotation Yrotation Zrotation
					End Site
					{
						OFFSET 0.000000 22.523010 0.000000
					}
				}
				JOINT newVegas:Right_Peck
				{
					OFFSET -17.239599 -5.132202 25.482599
					CHANNELS 3 Xrotation Yrotation Zrotation
					End Site
					{
						OFFSET 0.000000 22.523010 0.000000
					}
				}
				JOINT newVegas:Right_Collar
				{
					OFFSET -18.625099 8.655792 8.828100
					CHANNELS 3 Xrotation Yrotation Zrotation
					JOINT newVegas:Right_Collar1
					{
						OFFSET -14.783401 10.539993 -1.259500
						CHANNELS 3 Xrotation Yrotation Zrotation
						End Site
						{
							OFFSET 0.000000 18.199631 0.000000
						}
					}
				}
			}
		}
		JOINT newVegas:Belly
		{
			OFFSET 0.000000 -6.540398 9.014299
			CHANNELS 3 Xrotation Yrotation Zrotation
			End Site
			{
				OFFSET 0.000000 11.566666 0.000000
			}
		}
	}
	JOINT newVegas:ElvisFacialAnim_Joint
	{
		OFFSET 1.000000 -95.330101 -8.825800
		CHANNELS 3 Xrotation Yrotation Zrotation
		End Site
		{
			OFFSET 0.000000 35.315800 0.000000
		}
	}
}
MOTION
Frames: 4
Frame Time: 0.033333
-2.283959 92.652840 2.711458 -16.871424 -38.843918 -9.256394 -0.000000 0.000000 0.000000 -21.726731 41.891695 31.794858 29.210322 -0.836167 -0.990752 -2.656222 1.935970 -6.156940 0.000000 0.000001 0.000000 -0.000000 -0.000000 0.000000 6.384902 5.351092 -7.010983 33.002251 0.100165 1.181730 -24.498934 -18.001694 5.269228 -0.000000 0.000003 0.000000 0.000000 -0.000002 0.000000 7.991396 -0.090032 -0.225209 16.413459 -0.125534 -0.745991 16.413520 -0.192906 -0.721093 0.160369 2.999844 0.240065 0.160368 2.999846 0.240068 0.000003 -0.000002 0.000001 0.160373 2.999833 0.240068 0.160373 2.999849 0.240067 0.000002 0.000001 -0.000000 0.000003 -0.000002 0.000001 -37.571074 -4.822517 1.545823 -41.628422 -7.015796 -61.684388 -0.000016 -64.995903 -0.000004 -119.359632 1.120070 32.550223 4.709226 9.560384 3.111990 19.473195 -1.474893 7.636930 -0.000001 0.000001 -0.000001 -0.212819 3.933730 -36.747125 2.942137 5.078904 -60.144610 -0.000001 0.000000 0.000000 0.405907 5.507038 -52.453162 3.387123 5.308621 -65.057470 -0.000003 -0.000003 0.000003 -0.074386 5.736777 -61.061420 4.055052 5.569497 -72.094894 -0.000000 0.000001 -0.000002 -6.565548 4.545178 -72.425236 3.299609 5.267176 -64.107862 -0.000002 -0.000005 -0.000006 -0.000000 0.000003 -0.000000 -0.000000 0.000003 -0.000000 -0.000000 0.000003 0.000000 0.000000 -0.000001 -0.000000 -0.000000 -0.000002 0.000001 0.000000 -0.000001 -0.000000 -0.000001 -0.000002 0.000001 -41.176301 -8.605649 -9.942312 -46.819693 58.242963 100.948700 -0.000774 98.443011 0.000763 -52.463113 -17.216610 -29.273077 8.377155 -4.904129 11.021990 21.620195 -18.183897 -18.379213 -0.000000 -0.000002 -0.000001 -0.920019 1.683597 12.434960 0.748115 -2.533462 32.898293 -0.000000 -0.000000 0.000001 3.413071 -7.186236 51.650256 6.296801 -4.359594 110.634673 0.000000 -0.000001 0.000000 -3.349032 -2.600406 57.010582 5.440873 -4.590872 99.698174 0.000000 -0.000001 -0.000003 -3.996434 -3.303957 64.593857 4.058837 -4.618635 82.610530 -0.000002 0.000001 0.000001 0.000002 0.000001 0.000002 -0.000000 -0.000000 -0.000001 0.000002 0.000001 0.000001 0.000001 -0.000001 0.000002 0.000001 0.000000 0.000000 0.000001 -0.000001 0.000002 0.000001 0.000000 0.000002 0.000001 -0.000001 0.000001 0.000001 -0.000001 0.000001 0.000001 -0.000001 0.000001 0.000001 -0.000001 0.000001 0.000001 -0.000001 0.000001 0.000001 -0.000001 0.000001 0.000001 -0.000001 0.000001 -0.000000 -0.000001 -0.000000 -0.000000 0.000000 0.000000 
-2.225085 92.503258 2.648851 -16.913015 -38.972735 -9.073424 -0.000000 -0.000004 -0.000001 -21.897025 42.027247 32.058036 29.618747 -0.706251 -1.496224 -2.843181 1.560160 -5.848404 -0.000000 -0.000001 -0.000000 -0.000000 -0.000000 -0.000000 5.822021 5.601508 -7.109902 34.135933 0.105140 1.036522 -25.070283 -18.103444 5.255450 0.000000 0.000001 -0.000000 0.000001 -0.000001 -0.000000 8.084215 -0.011695 -0.396860 16.411450 -0.124465 -0.781778 16.411427 -0.190853 -0.756590 0.164957 3.003528 0.234183 0.164963 3.003524 0.234189 -0.000000 -0.000002 -0.000000 0.165044 3.003496 0.234184 0.164890 3.003540 0.234186 -0.000003 0.000001 -0.000000 -0.000000 -0.000002 0.000000 -37.564668 -4.718637 1.417419 -42.172487 -7.468205 -62.011875 0.000008 -64.045543 -0.000008 -119.174029 1.572561 32.294319 4.675921 9.518649 3.158908 19.449855 -1.587382 7.682609 0.000003 -0.000004 -0.000003 -0.252897 3.853854 -36.387727 2.938928 5.077086 -60.108390 0.000002 -0.000001 0.000000 0.439933 5.522065 -52.244448 3.387171 5.308625 -65.057887 -0.000002 -0.000001 0.000000 -0.255112 5.612742 -60.741385 4.040508 5.564811 -71.945156 0.000001 -0.000001 0.000002 -6.722176 4.426829 -72.104729 3.299794 5.267279 -64.109651 0.000001 -0.000002 0.000000 -0.000001 -0.000003 0.000005 -0.000001 -0.000003 0.000005 -0.000001 -0.000002 0.000005 0.000000 0.000001 -0.000002 -0.000000 0.000000 -0.000001 0.000000 0.000001 -0.000002 -0.000002 0.000000 -0.000001 -41.180218 -8.669652 -9.785079 -46.713849 58.338927 100.778792 -0.000201 98.287433 0.000165 -52.548381 -17.067792 -29.531972 8.396254 -4.923160 11.115960 21.666026 -18.260774 -18.359709 0.000001 -0.000002 -0.000001 -0.950200 1.648169 12.853847 0.748123 -2.533496 32.898692 -0.000000 -0.000000 -0.000002 3.468590 -7.229792 51.651984 6.309767 -4.354674 110.805558 0.000000 0.000000 0.000003 -3.357919 -2.603579 57.075615 5.445506 -4.590109 99.756135 -0.000001 -0.000001 -0.000000 -3.972116 -3.315278 64.591610 4.071162 -4.620220 82.763724 0.000000 0.000002 0.000000 -0.000001 -0.000000 0.000001 0.000000 -0.000000 0.000000 -0.000001 -0.000000 0.000001 0.000000 -0.000001 0.000001 0.000000 0.000000 0.000001 0.000000 -0.000001 0.000001 0.000001 0.000000 0.000002 0.000001 -0.000002 0.000001 0.000001 -0.000002 0.000001 0.000001 -0.000002 0.000001 0.000001 -0.000002 0.000001 0.000001 -0.000002 0.000001 0.000001 -0.000002 0.000001 0.000001 -0.000002 0.000001 0.000000 0.000001 -0.000000 -0.000000 -0.000004 -0.000001 
-2.103992 92.275322 2.518297 -17.120675 -39.102027 -8.887763 -0.000000 0.000000 0.000000 -22.133132 42.242951 32.465730 30.287958 -0.620114 -2.196567 -3.119201 1.104797 -5.357031 -0.000000 0.000001 0.000000 -0.000000 0.000000 0.000000 4.843233 6.144843 -7.238678 36.151044 -0.090246 0.815596 -25.596101 -18.316482 5.549799 0.000000 0.000002 -0.000000 0.000003 0.000003 -0.000003 8.383777 0.010992 -0.643913 16.395956 -0.128997 -0.817956 16.395657 -0.194650 -0.794175 0.171594 3.015458 0.216767 0.171653 3.015470 0.216834 -0.000000 -0.000001 -0.000000 0.171630 3.015466 0.216795 0.171634 3.015496 0.216788 -0.000003 0.000002 -0.000001 -0.000000 -0.000001 0.000000 -37.554726 -4.597447 1.312304 -42.883145 -7.937170 -62.410970 -0.000003 -62.760894 -0.000024 -118.675261 2.176082 31.718586 4.670180 9.522686 3.190853 19.461854 -1.551245 7.666836 0.000003 0.000001 -0.000003 -0.327018 3.743611 -36.265405 2.935205 5.074933 -60.066316 -0.000001 0.000001 -0.000000 0.444841 5.521935 -52.169729 3.389637 5.309768 -65.084483 -0.000002 -0.000001 0.000001 -0.291197 5.591329 -60.724972 4.034025 5.562698 -71.878199 -0.000001 -0.000002 -0.000005 -6.733201 4.416652 -72.073830 3.299848 5.267302 -64.110539 -0.000000 -0.000002 0.000001 -0.000002 -0.000002 -0.000002 -0.000002 -0.000002 -0.000002 -0.000002 -0.000001 -0.000002 0.000001 0.000001 -0.000002 0.000001 0.000002 -0.000002 0.000001 0.000001 -0.000002 -0.000000 0.000000 -0.000001 -41.185047 -8.735470 -9.630212 -46.576088 58.503733 100.681954 -0.001994 97.712830 0.002029 -52.361746 -16.321859 -29.306761 8.438437 -4.958844 11.242998 21.754745 -18.408500 -18.322257 -0.000003 -0.000004 -0.000001 -0.976992 1.553455 13.387319 0.748057 -2.533381 32.897043 0.000000 -0.000001 0.000001 3.538239 -7.292882 51.480864 6.312211 -4.353770 110.837530 0.000001 0.000000 -0.000002 -3.338266 -2.624203 57.132285 5.456531 -4.588193 99.893900 0.000001 0.000001 -0.000002 -3.966305 -3.325231 64.641518 4.050195 -4.617515 82.503296 -0.000000 0.000001 0.000001 0.000003 0.000001 0.000001 0.000003 -0.000000 -0.000002 0.000003 0.000000 0.000000 -0.000001 0.000001 -0.000002 -0.000001 0.000002 -0.000002 -0.000001 0.000001 -0.000002 -0.000001 0.000002 -0.000001 0.000002 -0.000000 0.000001 0.000002 -0.000000 0.000001 0.000002 -0.000000 0.000001 0.000002 -0.000000 0.000001 0.000002 -0.000000 0.000001 0.000002 -0.000000 0.000001 0.000002 -0.000000 0.000001 -0.000000 0.000003 0.000000 -0.000000 0.000000 0.000000 
-1.942784 91.938629 2.285549 -17.502303 -39.247787 -8.597954 -0.000002 0.000001 -0.000000 -22.305538 42.573713 32.873598 31.126900 -0.625781 -3.099811 -3.408638 0.621505 -4.690294 0.000000 -0.000000 0.000000 -0.000000 -0.000000 0.000000 3.105695 6.888909 -7.533767 39.507276 -0.323512 0.632704 -25.946806 -18.560868 6.052755 0.000000 0.000001 -0.000000 -0.000002 -0.000001 -0.000001 8.828095 -0.044692 -1.102423 16.370847 -0.134131 -0.826380 16.369383 -0.199241 -0.805027 0.171442 3.030248 0.200096 0.171445 3.030239 0.200101 0.000002 -0.000001 -0.000000 0.171461 3.030242 0.200097 0.171385 3.030270 0.200095 -0.000002 0.000002 -0.000000 0.000002 -0.000001 0.000000 -37.544341 -4.488652 1.177225 -43.998993 -8.293130 -62.744283 0.000015 -60.750448 0.000012 -117.982297 3.099687 30.878227 4.644019 9.457596 3.059725 19.560277 -1.210696 7.522213 -0.000001 0.000000 -0.000004 -0.377456 3.652281 -35.982908 2.930663 5.072338 -60.014953 -0.000000 -0.000000 0.000001 0.437682 5.511407 -52.075548 3.388492 5.309238 -65.072155 -0.000002 -0.000001 0.000000 -0.335631 5.557373 -60.608032 4.027830 5.560673 -71.814180 -0.000004 -0.000000 -0.000002 -6.732428 4.384484 -71.921079 3.299511 5.267141 -64.106762 -0.000001 -0.000003 -0.000000 0.000001 0.000001 -0.000000 0.000001 0.000001 -0.000000 0.000001 0.000001 0.000000 0.000001 -0.000002 -0.000000 0.000001 -0.000002 0.000000 0.000001 -0.000002 -0.000000 -0.000001 -0.000002 0.000001 -41.189405 -8.800461 -9.474232 -47.305060 58.549618 101.337031 0.000329 96.381517 -0.000327 -52.126938 -15.378803 -28.655922 8.379775 -4.895327 11.154229 21.763553 -18.421223 -18.317109 0.000003 0.000000 -0.000002 -1.004211 1.500273 13.828354 0.748073 -2.533369 32.896800 -0.000000 -0.000000 0.000004 3.623599 -7.353581 51.613134 6.318842 -4.351230 110.925250 -0.000000 0.000000 0.000001 -3.296426 -2.653203 57.144610 5.467483 -4.586263 100.030873 -0.000001 -0.000001 -0.000001 -3.942505 -3.342387 64.681987 4.049073 -4.617386 82.489643 0.000000 0.000002 -0.000004 0.000000 0.000002 0.000001 0.000000 -0.000000 -0.000002 0.000000 0.000002 -0.000001 -0.000001 0.000003 -0.000001 -0.000001 0.000003 0.000001 -0.000001 0.000003 -0.000001 -0.000001 0.000003 0.000002 0.000001 -0.000000 0.000001 0.000001 -0.000000 0.000001 0.000001 -0.000000 0.000001 0.000001 -0.000000 0.000001 0.000001 -0.000000 0.000001 0.000001 -0.000000 0.000001 0.000001 -0.000000 0.000001 0.000000 -0.000001 -0.000000 -0.000002 0.000001 -0.000000 
